@startuml
hide empty description

skinparam state {
  BackgroundColor<<pseudo>> LightGray
  BackgroundColor<<composite>> LightBlue
  BorderColor<<pseudo>> Gray
  FontStyle<<pseudo>> italic
}

legend top left
|= Variable |= Type |= Initial Value |
| trace | int | 0 |
endlegend

state "Root" as root <<composite>> {
    state "A" as root__a <<pseudo>> #line.dotted
    [*] --> root__a
    root__a --> [*] : trace >= 2
}
[*] --> root
root --> [*]
@enduml