@startuml
hide empty description

skinparam state {
  BackgroundColor<<pseudo>> LightGray
  BackgroundColor<<composite>> LightBlue
  BorderColor<<pseudo>> Gray
  FontStyle<<pseudo>> italic
}

legend top left
|= Variable |= Type |= Initial Value |
| x | int | 0 |
endlegend

state "Root" as root <<composite>> {
    state "Idle" as root__idle
    state "Done" as root__done
    [*] --> root__idle
    root__idle --> root__done : Go
}
[*] --> root
root --> [*]
@enduml